<svg width="32" height="32" viewBox="0 0 32 32" fill="none" xmlns="http://www.w3.org/2000/svg">
<g clip-path="url(#clip0)">
<path d="M12.5171 15.3723C13.768 14.396 14.5744 12.8758 14.5744 11.1699C14.5744 8.23089 12.1834 5.83984 9.24446 5.83984H1.06149C0.475123 5.83984 0 6.31511 0 6.90134V25.0986C0 25.6848 0.475123 26.16 1.06149 26.16H9.24446C12.4932 26.16 15.1362 23.5172 15.1362 20.2689C15.1362 18.2301 14.0952 16.4304 12.5171 15.3723ZM9.24446 7.96283C11.0128 7.96283 12.4514 9.40164 12.4514 11.1699C12.4514 12.9382 11.0128 14.3769 9.24446 14.3769H2.12298V7.96283H9.24446ZM9.24446 24.0371H2.12298V16.4999H9.24446C11.3226 16.4999 13.0132 18.1906 13.0132 20.2688C13.0132 22.3466 11.3226 24.0371 9.24446 24.0371Z" fill="#FF6347"/>
<path d="M24.2268 10.6138C19.9408 10.6138 16.4537 14.1007 16.4537 18.3869C16.4537 22.673 19.9408 26.16 24.2268 26.16C26.3031 26.16 28.2551 25.3514 29.7234 23.8831C30.1381 23.4686 30.1381 22.7966 29.7235 22.382C29.309 21.9675 28.6368 21.9675 28.2223 22.382C27.1548 23.4492 25.736 24.037 24.2268 24.037C21.4743 24.037 19.1764 22.0579 18.6782 19.4484H30.9386C31.5249 19.4484 32.0001 18.9731 32.0001 18.3869C32.0001 14.1007 28.513 10.6138 24.2268 10.6138ZM24.2268 12.7368C26.9793 12.7368 29.2773 14.7157 29.7756 17.3254H18.6782C19.1764 14.7157 21.4743 12.7368 24.2268 12.7368Z" fill="#FF6347"/>
<path d="M19.4507 8.52485H28.437C29.0233 8.52485 29.4984 8.04958 29.4984 7.46335C29.4984 6.87712 29.0233 6.40186 28.437 6.40186H19.4507C18.8643 6.40186 18.3892 6.87712 18.3892 7.46335C18.3892 8.04958 18.8643 8.52485 19.4507 8.52485Z" fill="#FF6347"/>
</g>
<defs>
<clipPath id="clip0">
<rect width="32" height="32" fill="white"/>
</clipPath>
</defs>
</svg>
