<svg width="32" height="32" viewBox="0 0 32 32" fill="none" xmlns="http://www.w3.org/2000/svg">
<g clip-path="url(#clip0)">
<path d="M16 0.000488281C7.1775 0.000488281 0 7.17799 0 16.0003C0 24.8226 7.1775 32.0001 16 32.0001C24.8225 32.0001 32 24.8226 32 16.0003C32 7.17799 24.8225 0.000488281 16 0.000488281ZM26.4266 7.54638C28.2228 9.7574 29.3286 12.5481 29.4206 15.5903C26.0933 14.9015 23.0804 14.9823 20.4207 15.5038C19.9391 14.3776 19.4405 13.3046 18.9373 12.2906C21.8339 11.0427 24.3556 9.44895 26.4266 7.54638ZM24.6242 5.71454C22.5685 7.59091 20.1862 8.98021 17.7469 10.0059C15.9565 6.73185 14.2435 4.26633 13.2 2.86522C14.1036 2.67272 15.0399 2.56945 16 2.56945C19.2809 2.56945 22.2892 3.75357 24.6242 5.71454ZM10.6054 3.70424C11.3933 4.72532 13.2702 7.28195 15.2863 10.9194C10.2193 12.5702 5.30268 12.8484 2.94009 12.8742C3.92486 8.76047 6.80569 5.37784 10.6054 3.70424ZM2.583 15.4497C2.60835 15.4497 2.63284 15.4499 2.6587 15.4499C4.29119 15.4499 7.28215 15.3401 10.8033 14.698C12.8123 14.3317 14.7172 13.8386 16.5047 13.2276C16.97 14.1549 17.4326 15.1332 17.8812 16.1586C15.3783 16.9644 13.2677 18.1238 11.5958 19.2751C8.79218 21.2057 6.82813 23.3477 5.75567 24.6721C3.77004 22.3304 2.56896 19.3038 2.56896 16.0003C2.56896 15.8157 2.57547 15.6326 2.583 15.4497ZM7.60686 26.4747C8.53015 25.3121 10.4094 23.1961 13.1279 21.3395C14.9753 20.0776 16.8866 19.1401 18.8543 18.5248C19.9959 21.4839 20.9706 24.7535 21.5517 28.2251C19.8582 28.9972 17.9795 29.4312 16 29.4312C12.8261 29.4312 9.90797 28.3223 7.60686 26.4747ZM23.9151 26.8418C23.3162 23.6534 22.4231 20.6554 21.3905 17.9156C23.9304 17.4871 26.5553 17.5754 29.2514 18.181C28.6699 21.7245 26.6982 24.8045 23.9151 26.8418Z" fill="#FF6347"/>
</g>
<defs>
<clipPath id="clip0">
<rect width="32" height="32" fill="white"/>
</clipPath>
</defs>
</svg>
