<svg width="160" height="37" viewBox="0 0 160 37" fill="none" xmlns="http://www.w3.org/2000/svg">
<path d="M11.55 12.8C13.57 12.8 15.19 13.39 16.41 14.57C17.63 15.75 18.24 17.5 18.24 19.82V29H14.49V20.3C14.49 18.9 14.16 17.85 13.5 17.15C12.84 16.43 11.9 16.07 10.68 16.07C9.3 16.07 8.21 16.49 7.41 17.33C6.61 18.15 6.21 19.34 6.21 20.9V29H2.46V6.74H6.21V14.84C6.83 14.18 7.59 13.68 8.49 13.34C9.41 12.98 10.43 12.8 11.55 12.8ZM22.9971 12.98H26.7471V29H22.9971V12.98ZM24.8871 10.34C24.2071 10.34 23.6371 10.13 23.1771 9.71C22.7171 9.27 22.4871 8.73 22.4871 8.09C22.4871 7.45 22.7171 6.92 23.1771 6.5C23.6371 6.06 24.2071 5.84 24.8871 5.84C25.5671 5.84 26.1371 6.05 26.5971 6.47C27.0571 6.87 27.2871 7.38 27.2871 8C27.2871 8.66 27.0571 9.22 26.5971 9.68C26.1571 10.12 25.5871 10.34 24.8871 10.34ZM47.329 12.98V34.82H43.579V27.05C42.319 28.49 40.609 29.21 38.449 29.21C36.889 29.21 35.489 28.87 34.249 28.19C33.029 27.51 32.069 26.55 31.369 25.31C30.689 24.07 30.349 22.63 30.349 20.99C30.349 19.37 30.699 17.94 31.399 16.7C32.099 15.46 33.059 14.5 34.279 13.82C35.499 13.14 36.889 12.8 38.449 12.8C39.549 12.8 40.549 12.99 41.449 13.37C42.369 13.75 43.139 14.32 43.759 15.08V12.98H47.329ZM38.869 26C40.249 26 41.389 25.54 42.289 24.62C43.189 23.7 43.639 22.49 43.639 20.99C43.639 19.49 43.189 18.28 42.289 17.36C41.389 16.44 40.249 15.98 38.869 15.98C37.489 15.98 36.349 16.44 35.449 17.36C34.569 18.28 34.129 19.49 34.129 20.99C34.129 22.49 34.569 23.7 35.449 24.62C36.349 25.54 37.489 26 38.869 26ZM72.4554 12.8C74.4754 12.8 76.0754 13.39 77.2554 14.57C78.4354 15.73 79.0254 17.48 79.0254 19.82V29H75.2754V20.3C75.2754 18.9 74.9654 17.85 74.3454 17.15C73.7254 16.43 72.8354 16.07 71.6754 16.07C70.4154 16.07 69.4054 16.49 68.6454 17.33C67.8854 18.15 67.5054 19.33 67.5054 20.87V29H63.7554V20.3C63.7554 18.9 63.4454 17.85 62.8254 17.15C62.2054 16.43 61.3154 16.07 60.1554 16.07C58.8754 16.07 57.8554 16.48 57.0954 17.3C56.3554 18.12 55.9854 19.31 55.9854 20.87V29H52.2354V12.98H55.8054V15.02C56.4054 14.3 57.1554 13.75 58.0554 13.37C58.9554 12.99 59.9554 12.8 61.0554 12.8C62.2554 12.8 63.3154 13.03 64.2354 13.49C65.1754 13.93 65.9154 14.59 66.4554 15.47C67.1154 14.63 67.9654 13.98 69.0054 13.52C70.0454 13.04 71.1954 12.8 72.4554 12.8ZM89.9374 12.8C92.2974 12.8 94.0974 13.37 95.3374 14.51C96.5974 15.63 97.2274 17.33 97.2274 19.61V29H93.6874V27.05C93.2274 27.75 92.5674 28.29 91.7074 28.67C90.8674 29.03 89.8474 29.21 88.6474 29.21C87.4474 29.21 86.3974 29.01 85.4974 28.61C84.5974 28.19 83.8974 27.62 83.3974 26.9C82.9174 26.16 82.6774 25.33 82.6774 24.41C82.6774 22.97 83.2074 21.82 84.2674 20.96C85.3474 20.08 87.0374 19.64 89.3374 19.64H93.4774V19.4C93.4774 18.28 93.1374 17.42 92.4574 16.82C91.7974 16.22 90.8074 15.92 89.4874 15.92C88.5874 15.92 87.6974 16.06 86.8174 16.34C85.9574 16.62 85.2274 17.01 84.6274 17.51L83.1574 14.78C83.9974 14.14 85.0074 13.65 86.1874 13.31C87.3674 12.97 88.6174 12.8 89.9374 12.8ZM89.4274 26.48C90.3674 26.48 91.1974 26.27 91.9174 25.85C92.6574 25.41 93.1774 24.79 93.4774 23.99V22.13H89.6074C87.4474 22.13 86.3674 22.84 86.3674 24.26C86.3674 24.94 86.6374 25.48 87.1774 25.88C87.7174 26.28 88.4674 26.48 89.4274 26.48Z" fill="#FF6347"/>
<path d="M103.18 6.74H104.68V29H103.18V6.74ZM116.282 13.22C118.222 13.22 119.712 13.72 120.752 14.72C121.792 15.7 122.312 17.15 122.312 19.07V29H120.872V26.21C120.372 27.13 119.642 27.85 118.682 28.37C117.722 28.87 116.572 29.12 115.232 29.12C113.492 29.12 112.112 28.71 111.092 27.89C110.092 27.07 109.592 25.99 109.592 24.65C109.592 23.35 110.052 22.3 110.972 21.5C111.912 20.68 113.402 20.27 115.442 20.27H120.812V19.01C120.812 17.55 120.412 16.44 119.612 15.68C118.832 14.92 117.682 14.54 116.162 14.54C115.122 14.54 114.122 14.72 113.162 15.08C112.222 15.44 111.422 15.92 110.762 16.52L110.012 15.44C110.792 14.74 111.732 14.2 112.832 13.82C113.932 13.42 115.082 13.22 116.282 13.22ZM115.442 27.89C116.742 27.89 117.842 27.59 118.742 26.99C119.662 26.39 120.352 25.52 120.812 24.38V21.44H115.472C113.932 21.44 112.812 21.72 112.112 22.28C111.432 22.84 111.092 23.61 111.092 24.59C111.092 25.61 111.472 26.42 112.232 27.02C112.992 27.6 114.062 27.89 115.442 27.89ZM136.353 13.22C137.813 13.22 139.133 13.56 140.312 14.24C141.493 14.9 142.413 15.84 143.073 17.06C143.753 18.26 144.093 19.63 144.093 21.17C144.093 22.71 143.753 24.08 143.073 25.28C142.413 26.48 141.493 27.42 140.312 28.1C139.133 28.78 137.813 29.12 136.353 29.12C134.953 29.12 133.683 28.79 132.543 28.13C131.423 27.45 130.553 26.51 129.933 25.31V29H128.493V6.74H129.993V16.91C130.613 15.75 131.483 14.85 132.603 14.21C133.723 13.55 134.973 13.22 136.353 13.22ZM136.263 27.77C137.463 27.77 138.543 27.49 139.503 26.93C140.463 26.37 141.213 25.59 141.753 24.59C142.313 23.59 142.593 22.45 142.593 21.17C142.593 19.89 142.313 18.75 141.753 17.75C141.213 16.75 140.463 15.97 139.503 15.41C138.543 14.85 137.463 14.57 136.263 14.57C135.063 14.57 133.983 14.85 133.022 15.41C132.083 15.97 131.333 16.75 130.773 17.75C130.233 18.75 129.963 19.89 129.963 21.17C129.963 22.45 130.233 23.59 130.773 24.59C131.333 25.59 132.083 26.37 133.022 26.93C133.983 27.49 135.063 27.77 136.263 27.77ZM152.697 29.12C151.437 29.12 150.237 28.93 149.097 28.55C147.957 28.17 147.067 27.69 146.427 27.11L147.117 25.91C147.757 26.45 148.577 26.9 149.577 27.26C150.597 27.62 151.657 27.8 152.757 27.8C154.337 27.8 155.497 27.54 156.237 27.02C156.997 26.5 157.377 25.78 157.377 24.86C157.377 24.2 157.167 23.68 156.747 23.3C156.347 22.92 155.847 22.64 155.247 22.46C154.647 22.28 153.817 22.09 152.757 21.89C151.517 21.67 150.517 21.43 149.757 21.17C148.997 20.91 148.347 20.49 147.807 19.91C147.267 19.33 146.997 18.53 146.997 17.51C146.997 16.27 147.507 15.25 148.527 14.45C149.567 13.63 151.037 13.22 152.937 13.22C153.937 13.22 154.927 13.36 155.907 13.64C156.887 13.92 157.687 14.29 158.307 14.75L157.617 15.95C156.977 15.49 156.247 15.14 155.427 14.9C154.607 14.66 153.767 14.54 152.907 14.54C151.447 14.54 150.347 14.81 149.607 15.35C148.867 15.89 148.497 16.6 148.497 17.48C148.497 18.18 148.707 18.73 149.127 19.13C149.547 19.51 150.057 19.8 150.657 20C151.277 20.18 152.137 20.38 153.237 20.6C154.457 20.82 155.437 21.06 156.177 21.32C156.937 21.56 157.577 21.96 158.097 22.52C158.617 23.08 158.877 23.85 158.877 24.83C158.877 26.13 158.337 27.17 157.257 27.95C156.177 28.73 154.657 29.12 152.697 29.12Z" fill="#FF6347"/>
</svg>
