<svg width="32" height="32" viewBox="0 0 32 32" fill="none" xmlns="http://www.w3.org/2000/svg">
<path d="M23.1688 0H8.8306C3.96141 0 0 3.9616 0 8.83079V23.169C0 28.0384 3.96141 31.9998 8.8306 31.9998H23.1688C28.0384 31.9998 31.9998 28.0382 31.9998 23.169V8.83079C32 3.9616 28.0384 0 23.1688 0ZM29.1608 23.169C29.1608 26.4729 26.4729 29.1606 23.169 29.1606H8.8306C5.52693 29.1608 2.83918 26.4729 2.83918 23.169V8.83079C2.83918 5.52712 5.52693 2.83918 8.8306 2.83918H23.1688C26.4727 2.83918 29.1606 5.52712 29.1606 8.83079V23.169H29.1608Z" fill="#FF6347"/>
<path d="M15.9999 7.75488C11.4532 7.75488 7.75433 11.4538 7.75433 16.0004C7.75433 20.5469 11.4532 24.2456 15.9999 24.2456C20.5465 24.2456 24.2454 20.5469 24.2454 16.0004C24.2454 11.4538 20.5465 7.75488 15.9999 7.75488ZM15.9999 21.4062C13.0189 21.4062 10.5935 18.9812 10.5935 16.0002C10.5935 13.0191 13.0187 10.5939 15.9999 10.5939C18.981 10.5939 21.4062 13.0191 21.4062 16.0002C21.4062 18.9812 18.9808 21.4062 15.9999 21.4062Z" fill="#FF6347"/>
<path d="M24.5913 5.34717C24.0443 5.34717 23.5069 5.56862 23.1206 5.95665C22.7324 6.34277 22.5092 6.88032 22.5092 7.42923C22.5092 7.97644 22.7326 8.5138 23.1206 8.90182C23.5067 9.28795 24.0443 9.5113 24.5913 9.5113C25.1402 9.5113 25.6759 9.28795 26.0639 8.90182C26.4519 8.5138 26.6734 7.97625 26.6734 7.42923C26.6734 6.88032 26.4519 6.34277 26.0639 5.95665C25.6777 5.56862 25.1402 5.34717 24.5913 5.34717Z" fill="#FF6347"/>
</svg>
