<svg width="32" height="32" viewBox="0 0 32 32" fill="none" xmlns="http://www.w3.org/2000/svg">
<g clip-path="url(#clip0)">
<path d="M31.7846 6.83994C31.4046 6.29232 30.652 6.1561 30.1039 6.53626L26.3541 9.13813C26.0136 9.37434 25.8181 9.76867 25.836 10.1826C25.8468 10.4309 25.8521 10.6638 25.8521 10.8943C25.8521 18.5592 20.0197 26.4872 10.2594 26.4872C8.26968 26.4872 6.31494 26.1085 4.48804 25.378L10.2748 23.7594C10.9171 23.5797 11.2921 22.9134 11.1124 22.2711C10.9327 21.629 10.2671 21.2538 9.62415 21.4335L0.88239 23.8787C0.424136 24.0069 0.0839076 24.3922 0.0133823 24.8629C-0.0569821 25.3334 0.155399 25.8016 0.556009 26.0584C3.45818 27.919 6.81361 28.9026 10.2594 28.9026C17.0312 28.9026 21.2726 25.7032 23.6384 23.0194C26.5802 19.6818 28.2673 15.2626 28.2673 10.8945C28.2673 10.8467 28.2672 10.7989 28.2668 10.7509L31.4809 8.52079C32.0287 8.14047 32.1647 7.38804 31.7846 6.83994Z" fill="#FF6347"/>
<path d="M2.66567 6.46339L14.8361 12.6327C15.0087 12.7203 15.1958 12.7633 15.382 12.7633C15.647 12.7633 15.9104 12.6762 16.1273 12.506C16.4965 12.2165 16.6646 11.7394 16.5584 11.2823C16.4777 10.9355 16.437 10.5745 16.437 10.2096C16.437 7.61997 18.5442 5.51307 21.1343 5.51307C22.429 5.51307 23.679 6.0536 24.5633 6.99619C24.8937 7.3485 25.4024 7.46975 25.8564 7.30486L29.6126 5.94009C30.2395 5.71225 30.5631 5.01955 30.3353 4.39271C30.1076 3.76572 29.4143 3.44255 28.7879 3.67007L25.7313 4.7806C24.4546 3.70308 22.8197 3.09766 21.1343 3.09766C17.4422 3.09766 14.3982 5.92527 14.0541 9.52834L3.75769 4.30915C3.16273 4.0074 2.43606 4.24538 2.13448 4.84018C1.8329 5.43514 2.07072 6.16181 2.66567 6.46339Z" fill="#FF6347"/>
<path d="M2.04315 13.6954L4.71732 14.4337C4.82488 14.4634 4.93292 14.4774 5.03935 14.4774C5.56894 14.4774 6.05488 14.1263 6.2027 13.5909C6.3803 12.9481 6.00288 12.283 5.3601 12.1053L2.68593 11.3671C2.04347 11.1896 1.37799 11.5667 1.20039 12.2097C1.02295 12.8528 1.40021 13.5178 2.04315 13.6954Z" fill="#FF6347"/>
<path d="M4.38771 17.2895C3.72126 17.3147 3.2015 17.8754 3.22678 18.5418C3.25141 19.1928 3.78679 19.7037 4.43279 19.7037C4.44825 19.7037 4.46371 19.7034 4.47916 19.7029L7.14593 19.6018C7.81237 19.5765 8.33214 19.0159 8.30702 18.3493C8.28174 17.6828 7.71963 17.1637 7.05463 17.1883L4.38771 17.2895Z" fill="#FF6347"/>
</g>
<defs>
<clipPath id="clip0">
<rect width="32" height="32" fill="white"/>
</clipPath>
</defs>
</svg>
